<?xml version="1.0" standalone="no"?>
<!DOCTYPE svg PUBLIC "-//W3C//DTD SVG 20010904//EN"
 "http://www.w3.org/TR/2001/REC-SVG-20010904/DTD/svg10.dtd">
<svg version="1.0" xmlns="http://www.w3.org/2000/svg"
 width="404.000000pt" height="404.000000pt" viewBox="0 0 404.000000 404.000000"
 preserveAspectRatio="xMidYMid meet">
<metadata>
Created by potrace 1.14, written by Peter Selinger 2001-2017
</metadata>
<g transform="translate(0.000000,404.000000) scale(0.100000,-0.100000)"
fill="#000000" stroke="none">
<path d="M0 2015 l0 -1575 2020 0 2020 0 0 1575 0 1575 -730 0 c-631 0 -730
-2 -730 -15 0 -7 -6 -18 -14 -22 -9 -5 -16 -28 -18 -58 -3 -50 -3 -50 -38 -50
-32 0 -35 3 -38 30 -1 17 -5 49 -8 73 l-5 42 -1230 0 -1229 0 0 -1575z m1603
1368 c-7 -2 -21 -2 -30 0 -10 3 -4 5 12 5 17 0 24 -2 18 -5z m107 -3 c0 -5
-10 -10 -22 -10 -19 0 -20 2 -8 10 19 13 30 13 30 0z m148 3 c-10 -2 -26 -2
-35 0 -10 3 -2 5 17 5 19 0 27 -2 18 -5z m132 -10 c0 -9 15 -13 43 -13 66 -1
169 -18 177 -30 8 -13 85 -28 214 -39 87 -8 102 -12 125 -35 l26 -27 -59 7
c-44 5 -57 4 -52 -4 4 -7 11 -12 16 -12 5 0 20 -4 34 -9 18 -8 23 -15 19 -30
-6 -25 -44 -28 -63 -6 -7 8 -19 15 -28 15 -9 0 -25 9 -36 19 -23 21 -143 51
-203 51 -22 0 -43 4 -49 10 -15 15 -40 -5 -26 -22 7 -8 7 -19 2 -28 -7 -12
-14 -9 -33 14 -16 18 -31 27 -41 23 -8 -3 -18 -2 -21 3 -10 17 -25 11 -25 -10
0 -26 -8 -25 -29 2 -12 14 -30 22 -52 23 -35 1 -79 30 -79 52 0 20 87 17 98
-3 8 -14 10 -14 22 1 18 22 -3 36 -43 28 -31 -6 -56 15 -35 28 20 12 98 5 98
-8z m-525 -3 c3 -5 1 -10 -4 -10 -6 0 -11 5 -11 10 0 6 2 10 4 10 3 0 8 -4 11
-10z m-112 -28 c27 -4 39 -22 15 -22 -25 0 -88 27 -81 34 4 3 14 4 22 0 9 -4
28 -9 44 -12z m92 8 c4 -6 -6 -10 -22 -10 -22 0 -25 2 -13 10 19 12 27 12 35
0z m1188 -197 c-7 -2 -19 -2 -25 0 -7 3 -2 5 12 5 14 0 19 -2 13 -5z m-1129
-302 c3 -5 -9 -12 -28 -15 -32 -6 -86 -46 -86 -63 0 -6 -87 -58 -122 -71 -16
-7 -8 25 12 43 11 10 20 24 20 32 0 8 11 13 29 13 17 0 33 5 36 10 3 6 1 10
-4 10 -6 0 -11 5 -11 10 0 6 16 10 36 10 19 0 42 7 50 15 17 16 60 20 68 6z
m1416 -397 c0 -8 7 -26 16 -40 12 -18 14 -28 6 -36 -7 -7 -14 -4 -22 11 -15
29 -23 94 -10 86 5 -3 10 -13 10 -21z m-1690 -84 c0 -5 -4 -10 -10 -10 -5 0
-10 5 -10 10 0 6 5 10 10 10 6 0 10 -4 10 -10z m1710 -32 c0 -19 -2 -20 -10
-8 -13 19 -13 30 0 30 6 0 10 -10 10 -22z m-1710 -12 c0 -7 7 -19 15 -26 9 -7
13 -21 9 -35 -3 -13 -1 -26 5 -29 6 -4 11 -15 11 -24 0 -10 8 -22 18 -29 11
-6 24 -34 31 -67 7 -33 18 -56 26 -56 28 0 35 -93 11 -157 -8 -21 -18 -65 -22
-98 -8 -55 -11 -60 -34 -60 -20 0 -26 -6 -28 -30 -4 -34 15 -105 27 -105 5 0
15 23 22 50 8 30 21 56 35 64 12 8 35 39 51 68 34 59 192 228 215 228 19 0 68
23 68 33 0 10 -18 9 -25 -3 -8 -13 -25 -13 -25 0 0 5 12 12 28 16 50 10 101
37 107 54 5 16 62 36 72 26 7 -6 -58 -96 -78 -109 -11 -7 -19 -19 -19 -29 0
-9 -9 -20 -20 -23 -11 -3 -20 -11 -20 -16 0 -16 30 -10 47 11 10 11 24 20 31
20 9 0 12 6 8 15 -4 11 3 17 24 22 17 3 30 9 30 14 0 13 44 11 58 -3 19 -19
14 -28 -15 -26 -31 2 -73 -17 -73 -33 0 -6 -7 -17 -15 -25 -8 -9 -15 -23 -15
-33 0 -19 -2 -21 -100 -108 -36 -31 -71 -65 -78 -75 -15 -21 -42 -24 -42 -5 0
6 -6 1 -14 -13 -7 -14 -10 -29 -6 -33 11 -13 -1 -57 -15 -57 -22 0 -45 -48
-45 -95 0 -32 -6 -51 -20 -65 -11 -11 -20 -32 -19 -47 0 -16 3 -22 6 -15 8 21
23 13 23 -13 0 -13 -6 -28 -14 -32 -32 -19 -56 -77 -56 -138 0 -35 -6 -69 -14
-80 -13 -19 -24 -69 -29 -130 -4 -46 -26 -83 -47 -78 -10 3 -20 -2 -23 -11 -8
-20 -37 -21 -37 -1 0 8 -4 15 -9 15 -26 0 -22 209 9 410 9 65 -3 164 -22 176
-4 3 -8 19 -8 35 0 16 -9 47 -19 68 -15 29 -20 57 -19 116 1 59 -3 80 -13 83
-8 2 -31 16 -52 30 -30 20 -38 31 -34 49 3 15 -1 23 -10 23 -11 0 -13 10 -8
48 6 46 5 46 -11 25 -9 -13 -20 -23 -25 -23 -15 0 -10 19 10 39 36 36 53 69
46 91 -4 11 -2 20 4 20 6 0 11 10 11 23 0 13 11 34 25 47 14 13 25 28 25 34 0
5 9 29 21 53 20 41 49 58 49 29z m996 -453 c29 -37 45 -41 65 -16 13 15 14 14
19 -11 3 -17 17 -34 35 -44 37 -21 45 -31 45 -58 0 -12 6 -34 14 -49 11 -21
15 -77 17 -224 2 -253 1 -271 -12 -287 -6 -8 -9 -26 -6 -40 5 -26 -14 -195
-28 -244 -3 -14 -21 -34 -39 -46 -27 -17 -36 -19 -49 -9 -22 16 -21 31 2 64
12 17 18 36 14 50 -3 13 1 29 12 41 11 12 14 26 10 39 -3 12 -2 21 4 21 6 0 4
14 -5 35 -18 45 -18 75 1 75 12 0 14 4 7 17 -7 12 -5 21 9 32 17 15 17 22 7
94 -6 42 -15 77 -19 77 -5 0 -6 13 -3 29 4 18 0 42 -10 62 -20 40 -20 43 -1
35 12 -4 15 4 15 39 0 33 -4 45 -15 45 -8 0 -15 -8 -15 -17 0 -18 -10 -12 -14
9 -1 7 -7 23 -14 35 -7 12 -12 29 -12 37 0 9 -9 21 -20 28 -11 7 -20 19 -20
26 0 12 -5 24 -32 75 -14 26 -38 144 -31 151 5 5 16 -6 69 -71z m1370 -920
c-10 -10 -19 5 -10 18 6 11 8 11 12 0 2 -7 1 -15 -2 -18z m122 -10 c-16 -2
-40 -2 -55 0 -16 2 -3 4 27 4 30 0 43 -2 28 -4z m-1368 -113 c0 -5 -4 -10 -10
-10 -5 0 -10 5 -10 10 0 6 5 10 10 10 6 0 10 -4 10 -10z m1184 -161 c-3 -5
-10 -7 -15 -3 -5 3 -7 10 -3 15 3 5 10 7 15 3 5 -3 7 -10 3 -15z"/>
<path d="M1995 3320 c4 -6 11 -8 16 -5 14 9 11 15 -7 15 -8 0 -12 -5 -9 -10z"/>
<path d="M1227 2144 c-4 -4 -7 -35 -7 -68 -1 -34 -7 -72 -15 -86 -22 -38 -19
-62 7 -58 17 2 25 14 35 53 22 84 9 188 -20 159z"/>
<path d="M1184 1896 c-8 -22 3 -33 18 -18 9 9 9 15 0 24 -9 9 -13 7 -18 -6z"/>
<path d="M2260 1720 c0 -6 4 -10 8 -10 4 0 12 -15 17 -32 8 -25 15 -32 30 -30
28 5 31 10 19 30 -13 20 -74 55 -74 42z"/>
</g>
</svg>
